# xmcd
#
# Track frame offsets:
#	150
#	12833
#	25738
#	36165
#	46521
#	57710
#	68477
#	82241
#	94937
#	106380
#	120954
#	135906
#	152910
#	167037
#	180182
#	195184
#	209587
#	222867
#	237477
#	250306
#	264664
#	277846
#	289785
#	303284
#
# Disc length: 4223 seconds
#
# Revision: 1
# Processed by: cddbd v1.5.2PL0 Copyright (c) Steve Scherf et al.
# Submitted via: audiograbber 1.83.01
#
DISCID=45107d18
DTITLE=Wolgang Hohlbein - Sturm CD 4
DYEAR=2007
DGENRE=Hörbuch
TTITLE0=75
TTITLE1=76
TTITLE2=77
TTITLE3=78
TTITLE4=79
TTITLE5=80
TTITLE6=81
TTITLE7=82
TTITLE8=83
TTITLE9=84
TTITLE10=85
TTITLE11=86
TTITLE12=87
TTITLE13=88
TTITLE14=89
TTITLE15=90
TTITLE16=91
TTITLE17=92
TTITLE18=93
TTITLE19=94
TTITLE20=95
TTITLE21=96
TTITLE22=97
TTITLE23=98
EXTD=
EXTT0=
EXTT1=
EXTT2=
EXTT3=
EXTT4=
EXTT5=
EXTT6=
EXTT7=
EXTT8=
EXTT9=
EXTT10=
EXTT11=
EXTT12=
EXTT13=
EXTT14=
EXTT15=
EXTT16=
EXTT17=
EXTT18=
EXTT19=
EXTT20=
EXTT21=
EXTT22=
EXTT23=
PLAYORDER=
